<?xml version="1.0" encoding="utf-8"?>
<!-- Generator: Adobe Illustrator 19.0.0, SVG Export Plug-In . SVG Version: 6.00 Build 0)  -->
<svg version="1.1" id="Layer_1" xmlns="http://www.w3.org/2000/svg" xmlns:xlink="http://www.w3.org/1999/xlink" x="0px" y="0px"
	 viewBox="0 0 411.9 111" style="enable-background:new 0 0 411.9 111;" xml:space="preserve">
<style type="text/css">
	.st0{fill:none;stroke:#000000;stroke-width:9;stroke-miterlimit:10;}
	.st1{fill:#FFFFFF;stroke:#000000;stroke-width:9.6645;stroke-miterlimit:10;}
	.st2{fill:none;stroke:#000000;stroke-width:9.6645;stroke-miterlimit:10;}
	.st3{clip-path:url(#XMLID_20_);}
	.st4{fill:none;stroke:#000000;stroke-width:6.7862;stroke-miterlimit:10;}
	.st5{fill:none;stroke:#000000;stroke-width:8.0057;stroke-miterlimit:10;}
</style>
<g id="XMLID_410_">
	<path id="XMLID_411_" d="M118.2,0.6c13.2,0,18.3,9.5,18.3,18.9c0,8.6-4.6,18.9-18.5,18.9h-12.5V0.6H118.2z M129,19.5
		c0-5.9-2.9-12-9.5-12h-6.7v24h6.1C126.3,31.5,129,25.1,129,19.5z"/>
	<path id="XMLID_414_" d="M148.1,0.6h7.3v37.8h-7.3V0.6z"/>
	<path id="XMLID_416_" d="M164.3,0.6h7.9l8.3,24.7c0.3,0.8,0.5,1.8,0.8,2.6c0.2-0.8,0.4-1.7,0.7-2.6l8.3-24.7h7.8l-13.3,37.8h-7
		L164.3,0.6z"/>
	<path id="XMLID_418_" d="M206.7,0.6h25.8v6.9H214v7.9h10.9v6.9H214v9.1h19.7v6.9h-26.9V0.6z"/>
	<path id="XMLID_423_" d="M244.5,0.6H262c9.5,0,12.6,5.6,12.6,11.8c0,4.3-2.4,9.2-7.3,10.9l7.3,15.1h-8.2l-7.1-14.1h-7.6v14.1h-7.3
		V0.6z M262.1,17.4c3.7,0,5-2.4,5-5c0-2.4-1.1-4.9-5-4.9h-10.4v9.9H262.1z"/>
	<path id="XMLID_426_" d="M283.3,28.7l6.6-2.5c1.6,3.5,4.6,5.9,8.3,5.9s6.1-1.6,6.1-4.6c0-3.2-3.6-4.4-7.7-5.7
		c-5.5-1.8-11.9-3.9-11.9-11.4c0-5.7,4.6-10.4,12.8-10.4c6.8,0,11.2,3.8,12.6,8.7l-6.5,2.2c-1-2.3-3-4-6.5-4c-3.2,0-5,1.3-5,3.6
		c0,2.4,3.1,3.4,6.9,4.6c5.6,1.9,12.7,4.3,12.7,12.4c0,7.3-6,11.5-13.7,11.5C290.9,39.1,285.5,35.2,283.3,28.7z"/>
	<path id="XMLID_428_" d="M323,0.6h7.3v37.8H323V0.6z"/>
	<path id="XMLID_430_" d="M358.9,38.4h-7.3V7.7h-10.8v-7h28.9v7h-10.8V38.4z"/>
	<path id="XMLID_432_" d="M390.7,23.7l-14-23.1h8.3l9.3,15.4l9.3-15.4h8.3l-14,23.1v14.7h-7.2V23.7z"/>
	<path id="XMLID_434_" d="M105.5,53.6h16.2c9.6,0,12.9,6,12.9,11.9c0,5.5-3.7,11.9-12.9,11.9h-8.9v13.9h-7.3V53.6z M127,65.6
		c0-2.2-1.1-5-5-5h-9.2v10h9.2C125.7,70.6,127,68,127,65.6z"/>
	<path id="XMLID_437_" d="M142.2,72.5c0-9.3,4.5-19.5,16.7-19.5s16.6,10.2,16.6,19.5c0,9.3-4.4,19.5-16.6,19.5
		S142.2,81.9,142.2,72.5z M167.9,72.5c0-5.8-2.3-12.5-9.1-12.5c-6.9,0-9.1,7.1-9.1,12.5c0,5.7,2.3,12.5,9.1,12.5
		C165.5,85.1,167.9,78,167.9,72.5z"/>
	<path id="XMLID_440_" d="M186.8,53.6h7.3v30.8h18.3v7h-25.5V53.6z"/>
	<path id="XMLID_442_" d="M221.8,53.6h7.3v37.8h-7.3V53.6z"/>
	<path id="XMLID_444_" d="M240.7,72.5c0-8.6,4.2-19.5,15.9-19.5c7.2,0,11.8,4.3,13.5,8.5l-6.5,3c-1.9-2.9-3.7-4.5-7-4.5
		c-6.3,0-8.3,6.9-8.3,12.5c0,5.8,2.5,12.5,8.3,12.5c3.1,0,5.1-2,6.9-4.9l6.7,2.5c-2.5,5.5-6.7,9.3-13.6,9.3
		C244.8,92,240.7,81.9,240.7,72.5z"/>
	<path id="XMLID_446_" d="M290.3,76.7l-14-23.1h8.3l9.3,15.4l9.3-15.4h8.3l-14,23.1v14.7h-7.2V76.7z"/>
</g>
<path id="XMLID_871_" class="st0" d="M89.1,15.4"/>
<path id="XMLID_870_" class="st0" d="M10.8,15.4"/>
<g id="XMLID_916_">
	<g id="XMLID_917_">
		<path id="XMLID_922_" class="st1" d="M61.4,19.8"/>
		<path id="XMLID_921_" class="st1" d="M23.7,19.8"/>
		<path id="XMLID_920_" class="st1" d="M61.4,111"/>
		<path id="XMLID_919_" class="st2" d="M42.5,108.9"/>
		<path id="XMLID_918_" class="st2" d="M42.5,24.1"/>
	</g>
</g>
<g id="XMLID_448_">
	<g id="XMLID_378_">
		<defs>
			<rect id="XMLID_379_" x="15.9" y="38.2" width="53.7" height="53.3"/>
		</defs>
		<clipPath id="XMLID_20_">
			<use xlink:href="#XMLID_379_"  style="overflow:visible;"/>
		</clipPath>
		<g id="XMLID_380_" class="st3">
			<rect id="XMLID_382_" x="24.3" y="31.5" class="st4" width="38.4" height="64.6"/>
			<line id="XMLID_381_" class="st4" x1="43.5" y1="32.6" x2="43.5" y2="93.2"/>
		</g>
	</g>
	<g id="XMLID_376_">
		<polygon id="XMLID_377_" points="85.5,9.3 85.5,0.6 0,0.6 0,9.3 9.3,9.3 76.2,9.3 		"/>
	</g>
	<line id="XMLID_375_" class="st5" x1="9.3" y1="24.4" x2="76.2" y2="24.4"/>
</g>
<g id="XMLID_14_">
</g>
<g id="XMLID_15_">
</g>
<g id="XMLID_16_">
</g>
<g id="XMLID_17_">
</g>
<g id="XMLID_18_">
</g>
</svg>
