<svg width="26" height="26" viewBox="0 0 26 26" fill="none" xmlns="http://www.w3.org/2000/svg">
<path d="M18.4167 9.53333H7.58336C7.34416 9.53333 7.15002 9.72703 7.15002 9.96667C7.15002 10.2063 7.34416 10.4 7.58336 10.4H18.4167C18.6559 10.4 18.85 10.2063 18.85 9.96667C18.85 9.72703 18.6559 9.53333 18.4167 9.53333Z" fill="black"/>
<path d="M7.58336 6.93333H11.9167C12.1559 6.93333 12.35 6.73963 12.35 6.5C12.35 6.26037 12.1559 6.06667 11.9167 6.06667H7.58336C7.34416 6.06667 7.15002 6.26037 7.15002 6.5C7.15002 6.73963 7.34416 6.93333 7.58336 6.93333Z" fill="black"/>
<path d="M18.4167 13H7.58336C7.34416 13 7.15002 13.1937 7.15002 13.4333C7.15002 13.673 7.34416 13.8667 7.58336 13.8667H18.4167C18.6559 13.8667 18.85 13.673 18.85 13.4333C18.85 13.1937 18.6559 13 18.4167 13Z" fill="black"/>
<path d="M18.4167 16.4667H7.58336C7.34416 16.4667 7.15002 16.6604 7.15002 16.9C7.15002 17.1396 7.34416 17.3333 7.58336 17.3333H18.4167C18.6559 17.3333 18.85 17.1396 18.85 16.9C18.85 16.6604 18.6559 16.4667 18.4167 16.4667Z" fill="black"/>
<path d="M18.4167 19.9333H7.58336C7.34416 19.9333 7.15002 20.127 7.15002 20.3667C7.15002 20.6063 7.34416 20.8 7.58336 20.8H18.4167C18.6559 20.8 18.85 20.6063 18.85 20.3667C18.85 20.127 18.6559 19.9333 18.4167 19.9333Z" fill="black"/>
<path d="M16.8627 0H2.81668V26H23.1833V6.3206L16.8627 0ZM17.1167 1.4794L21.7039 6.06667H17.1167V1.4794ZM3.68335 25.1333V0.866667H16.25V6.93333H22.3167V25.1333H3.68335Z" fill="black"/>
</svg>
