<?xml version="1.0" encoding="utf-8"?>
<!-- Generator: Adobe Illustrator 19.0.0, SVG Export Plug-In . SVG Version: 6.00 Build 0)  -->
<svg version="1.1" id="Layer_1" xmlns="http://www.w3.org/2000/svg" xmlns:xlink="http://www.w3.org/1999/xlink" x="0px" y="0px"
	 viewBox="0 0 150 150" style="enable-background:new 0 0 150 150;" xml:space="preserve">
<style type="text/css">
	.st0{fill:none;stroke:#000000;stroke-width:4;stroke-miterlimit:10;}
	.st1{fill:none;}
</style>
<rect id="XMLID_1_" x="20.1" y="16.1" class="st0" width="112.1" height="112.1"/>
<g id="XMLID_3_">
	<rect id="XMLID_9_" x="39.9" y="45.2" class="st1" width="70.1" height="54"/>
	<path id="XMLID_5_" d="M90.8,93.7c0,0-3,5.1-12.7,5.8v-1.2c5.8-1.8,6.9-11-0.9-16.8l-11.1-7C55.8,68.1,52,60.9,58,53
		c0,0,3.1-4.8,12.6-5.4v1.2c-5.9,1.7-7.3,10.1,1.1,15.6l11.1,7.3C92.3,78,96.2,85.8,90.8,93.7z M73.6,98.2v1.3
		c-12.3-0.4-17.4-4.4-17.4-4.4V81.3h1.2C58.9,85.4,62.5,96.8,73.6,98.2z M75.1,48.9v-1.3C85.9,48,91.4,51,91.4,51v12.1h-1.2
		C88.9,59.6,85,50.2,75.1,48.9z"/>
</g>
<g id="XMLID_2_">
</g>
<g id="XMLID_4_">
</g>
<g id="XMLID_10_">
</g>
<g id="XMLID_11_">
</g>
<g id="XMLID_12_">
</g>
</svg>
